<?xml version="1.0" encoding="utf-8"?>
<!-- Generator: Adobe Illustrator 16.0.0, SVG Export Plug-In . SVG Version: 6.00 Build 0)  -->
<!DOCTYPE svg PUBLIC "-//W3C//DTD SVG 1.1//EN" "http://www.w3.org/Graphics/SVG/1.1/DTD/svg11.dtd">
<svg version="1.1" id="Hot_Dish_With_Spoon._Attribute_as_Freepik_from_Flaticon.com_1_"
	 xmlns="http://www.w3.org/2000/svg" xmlns:xlink="http://www.w3.org/1999/xlink" x="0px" y="0px" width="46px" height="42px"
	 viewBox="0 0 46 42" enable-background="new 0 0 46 42" xml:space="preserve">
<g id="Hot_Dish_With_Spoon._Attribute_as_Freepik_from_Flaticon.com">
	<g>
		<path fill-rule="evenodd" clip-rule="evenodd" fill="#FFE6B6" d="M4.31,25.51c0.064,0,0.064-0.1,0-0.1
			C4.245,25.41,4.245,25.51,4.31,25.51z M1.402,26.883c-0.037,0-0.037,0.058,0,0.058S1.439,26.883,1.402,26.883z M45.397,29.805
			c0.005-0.794-1.205-1.229-1.624-0.43c-0.07,0.136-0.151,0.262-0.23,0.389c-0.035-0.029-0.059-0.063-0.102-0.088
			c-3.426-1.937-7.207-2.911-11.107-3.208c0.955-1.043,1.805-2.185,2.608-3.343c1.887-2.72,3.26-6.142,2.495-9.465
			c-0.066-0.287-0.368-0.514-0.662-0.503c-6.424,0.234-11.658,7.151-11.761,13.271c-0.014,0.807,1.159,0.776,1.233,0
			c0.293-3.118,1.836-5.793,3.861-8.112c1.08-1.236,6.742-5.875,6.006-1.646c-0.828,4.752-5.24,8.601-8.713,11.528
			c-0.318,0.269-0.33,0.773-0.144,1.113c-0.079-0.145,0.292,1.287,0.562,2.267c-1.265-0.31-2.582-0.417-3.855-0.717
			c-1.215-0.286-2.413-0.692-3.6-1.087c0.981-1.082,2.293-1.548,3.812-1.741c0.806-0.104,0.836-1.206,0-1.274
			c-2.259-0.186-4.358,1.306-5.285,3.284c-0.189,0.406,0.139,0.759,0.474,0.756c0.036,0.028,0.064,0.061,0.11,0.082
			c2.548,1.171,5.889,2.595,8.733,1.921c0.078-0.018,0.144-0.051,0.199-0.092c0.324,0.073,0.711-0.176,0.62-0.609
			c-0.54-2.592,0.468-2.95,2.136-4.458c0.143-0.13,0.273-0.272,0.412-0.406c0.055,0.063,0.125,0.117,0.227,0.138
			c3.423,0.698,6.735,1.549,9.878,3.042c-5.839,1.4-11.396,2.84-17.624,3.005c-7.193,0.19-14.509-0.977-20.904-4.333
			c0.015-0.079,0.026-0.16,0.036-0.24c0.011-0.094-0.005-0.183-0.035-0.268c3.325-1.208,6.666-1.825,10.283-2.129
			c3.402-0.285,7.055,0.268,10.36-0.611c0.378-0.101,0.375-0.658,0-0.76c-6.718-1.831-16.64-0.577-22.729,3.011
			c-0.178-0.089-0.443,0.032-0.467,0.272v0.005c-0.369,0.253-0.309,0.667-0.053,0.889c-0.206,9.467,11.99,12.09,19.555,12.322
			c8.023,0.247,21.295-1.986,24.895-10.525c0.113-0.065,0.233-0.124,0.344-0.191C45.787,30.595,45.715,30.063,45.397,29.805z
			 M21.71,39.464c-7.35,0.136-17.183-1.995-20.019-9.591c0.192,0.064,0.395,0.101,0.619,0.069c-0.134,0.035-0.083,0.031,0.15-0.011
			c0.029-0.008,0.05-0.024,0.076-0.035c5.345,4.166,12.624,5.068,19.218,5.25c5.893,0.162,13.508-0.221,19.59-2.417
			C36.521,37.8,28.514,39.339,21.71,39.464z M6.593,28.828c-0.583,0.08-0.446,1.079,0.139,1.026c1.98-0.178,3.924-0.536,5.884-0.865
			c2.314-0.39,4.4-0.278,6.715-0.174c0.533,0.023,0.582-0.728,0.12-0.887C15.411,26.535,10.648,28.272,6.593,28.828z M33.777,30.515
			c0.41,0.087,0.814,0.229,1.186,0.421c0.316,0.163,0.468,0.351,0.844,0.307c0.252-0.029,0.453-0.187,0.459-0.459
			c0.037-1.766-3.751-1.483-4.82-1.447c-0.619,0.021-0.619,0.938,0,0.96C32.229,30.323,33.008,30.353,33.777,30.515z M2.091,15.484
			c2.94,1.605,3.058,6.354,7.063,6.228c0.713-0.022,0.797-0.962,0.162-1.195c-1.556-0.572-2.136-1.963-2.785-3.373
			c-0.708-1.539-1.639-2.99-3.24-3.71C1.923,12.818,0.721,14.736,2.091,15.484z M9.909,7.946c2.235,2.494,3.367,4.943,2.745,8.254
			c-0.671,3.571,1.243,5.168,4.59,5.926c0.59,0.134,1.034-0.753,0.431-1.021c-2.894-1.283-3.253-2.806-2.596-5.615
			c0.372-1.587,0.248-2.95-0.312-4.472c-1.097-2.979-4.21-7.155-7.12-8.561C7.002,2.146,6.173,2.655,6.395,3.42
			C6.934,5.283,8.646,6.538,9.909,7.946z M22.124,15c-0.916,1.34-0.838,2.835-0.473,4.329c0.163,0.664,1.226,0.527,1.197-0.162
			c-0.159-3.766,4.077-5.139,3.861-9.087c-0.204-3.74-4.403-5.065-4.572-8.822c-0.038-0.843-1.167-1.206-1.616-0.438
			c-1.965,3.364,1.421,5.351,3.207,7.771C25.629,11.166,23.489,13.004,22.124,15z"/>
	</g>
</g>
</svg>
