<?xml version="1.0" encoding="utf-8"?>
<!-- Generator: Adobe Illustrator 16.0.0, SVG Export Plug-In . SVG Version: 6.00 Build 0)  -->
<!DOCTYPE svg PUBLIC "-//W3C//DTD SVG 1.1//EN" "http://www.w3.org/Graphics/SVG/1.1/DTD/svg11.dtd">
<svg version="1.1" xmlns="http://www.w3.org/2000/svg" xmlns:xlink="http://www.w3.org/1999/xlink" x="0px" y="0px" width="100px"
	 height="100px" viewBox="0 0 100 100" enable-background="new 0 0 100 100" xml:space="preserve">
<g id="Ellipse_1_copy_1_" opacity="0.702" enable-background="new    ">
	<g id="Ellipse_1_copy">
		<g>
			<circle fill="#A7781D" cx="50" cy="50" r="50"/>
		</g>
	</g>
</g>
<g id="Facebook_Placeholder_For_Locate_Places_On_Maps._Attribute_as_SimpleIcon_from_Flaticon.com_1_" enable-background="new    ">
	<g id="Facebook_Placeholder_For_Locate_Places_On_Maps._Attribute_as_SimpleIcon_from_Flaticon.com">
		<g>
			<path fill="#FFFFFF" d="M60.479,41.963c-0.114-0.427-0.346-0.882-0.516-1.28c-2.043-4.921-6.508-6.686-10.111-6.686
				c-4.825,0-10.14,3.244-10.849,9.929v1.366c0,0.057,0.02,0.568,0.047,0.825c0.398,3.186,2.906,6.571,4.779,9.757
				c2.015,3.414,4.106,6.771,6.177,10.128c1.277-2.19,2.551-4.409,3.799-6.543c0.34-0.626,0.734-1.252,1.076-1.85
				c0.227-0.397,0.66-0.796,0.858-1.166c2.015-3.698,5.259-7.425,5.259-11.095v-1.508C60.998,43.443,60.506,42.049,60.479,41.963z
				 M49.939,48.819c-1.418,0-2.971-0.711-3.737-2.674c-0.114-0.313-0.105-0.939-0.105-0.996v-0.882c0-2.503,2.12-3.642,3.965-3.642
				c2.27,0,4.026,1.821,4.026,4.098C54.089,46.999,52.211,48.819,49.939,48.819z"/>
		</g>
	</g>
</g>
</svg>
